HIERARCHY
ROOT mixamorig:Hips
{
	OFFSET 0.000000 201.639420 0.000000
	CHANNELS 6 Xposition Yposition Zposition Xrotation Yrotation Zrotation
	JOINT mixamorig:Spine
	{
		OFFSET 0.006200 19.524994 -2.481800
		CHANNELS 3 Xrotation Yrotation Zrotation
		JOINT mixamorig:Spine1
		{
			OFFSET -0.000900 22.835007 -2.825400
			CHANNELS 3 Xrotation Yrotation Zrotation
			JOINT mixamorig:Spine2
			{
				OFFSET -0.020600 26.552490 -3.193300
				CHANNELS 3 Xrotation Yrotation Zrotation
				JOINT mixamorig:Neck
				{
					OFFSET -0.060000 30.701813 1.352200
					CHANNELS 3 Xrotation Yrotation Zrotation
					JOINT mixamorig:Head
					{
						OFFSET -0.087200 22.547607 3.670900
						CHANNELS 3 Xrotation Yrotation Zrotation
						JOINT mixamorig:HeadTop_End
						{
							OFFSET -0.830600 40.355194 7.893500
							CHANNELS 3 Xrotation Yrotation Zrotation
							End Site
							{
								OFFSET 0.000000 30.592346 0.000000
							}
						}
						JOINT mixamorig:RightEye
						{
							OFFSET -6.302100 18.118591 16.197100
							CHANNELS 3 Xrotation Yrotation Zrotation
							End Site
							{
								OFFSET 0.000000 30.592346 0.000000
							}
						}
						JOINT mixamorig:LeftEye
						{
							OFFSET 6.741500 18.382690 16.401899
							CHANNELS 3 Xrotation Yrotation Zrotation
							End Site
							{
								OFFSET 0.000000 30.592346 0.000000
							}
						}
					}
				}
				JOINT mixamorig:LeftShoulder
				{
					OFFSET 11.924900 18.230499 1.425400
					CHANNELS 3 Xrotation Yrotation Zrotation
					JOINT mixamorig:LeftArm
					{
						OFFSET 25.435989 -0.697632 -5.229300
						CHANNELS 3 Xrotation Yrotation Zrotation
						JOINT mixamorig:LeftForeArm
						{
							OFFSET 54.684776 0.000000 0.000000
							CHANNELS 3 Xrotation Yrotation Zrotation
							JOINT mixamorig:LeftHand
							{
								OFFSET 55.098175 0.000000 0.000000
								CHANNELS 3 Xrotation Yrotation Zrotation
								JOINT mixamorig:LeftHandMiddle1
								{
									OFFSET 23.369751 0.000000 0.000000
									CHANNELS 3 Xrotation Yrotation Zrotation
									JOINT mixamorig:LeftHandMiddle2
									{
										OFFSET 6.378677 0.000000 0.000000
										CHANNELS 3 Xrotation Yrotation Zrotation
										JOINT mixamorig:LeftHandMiddle3
										{
											OFFSET 6.148331 0.000000 0.000000
											CHANNELS 3 Xrotation Yrotation Zrotation
											JOINT mixamorig:LeftHandMiddle4
											{
												OFFSET 6.582504 0.000000 0.000000
												CHANNELS 3 Xrotation Yrotation Zrotation
												End Site
												{
													OFFSET -1.168900 6.395691 1.028606
												}
											}
										}
									}
								}
								JOINT mixamorig:LeftHandThumb1
								{
									OFFSET 7.235672 -3.848206 5.434273
									CHANNELS 3 Xrotation Yrotation Zrotation
									JOINT mixamorig:LeftHandThumb2
									{
										OFFSET 6.568451 -3.792297 3.792300
										CHANNELS 3 Xrotation Yrotation Zrotation
										JOINT mixamorig:LeftHandThumb3
										{
											OFFSET 6.063080 -3.500519 3.500518
											CHANNELS 3 Xrotation Yrotation Zrotation
											JOINT mixamorig:LeftHandThumb4
											{
												OFFSET 4.793182 -2.767334 2.767349
												CHANNELS 3 Xrotation Yrotation Zrotation
												End Site
												{
													OFFSET 0.101639 6.054260 1.275483
												}
											}
										}
									}
								}
								JOINT mixamorig:LeftHandIndex1
								{
									OFFSET 23.101074 -0.309540 4.992809
									CHANNELS 3 Xrotation Yrotation Zrotation
									JOINT mixamorig:LeftHandIndex2
									{
										OFFSET 6.226883 0.000000 0.000000
										CHANNELS 3 Xrotation Yrotation Zrotation
										JOINT mixamorig:LeftHandIndex3
										{
											OFFSET 6.094330 0.000000 0.000000
											CHANNELS 3 Xrotation Yrotation Zrotation
											JOINT mixamorig:LeftHandIndex4
											{
												OFFSET 5.482605 0.000000 0.000000
												CHANNELS 3 Xrotation Yrotation Zrotation
												End Site
												{
													OFFSET -1.427902 5.233032 0.797164
												}
											}
										}
									}
								}
								JOINT mixamorig:LeftHandRing1
								{
									OFFSET 22.299240 0.021149 -3.964172
									CHANNELS 3 Xrotation Yrotation Zrotation
									JOINT mixamorig:LeftHandRing2
									{
										OFFSET 6.321869 0.000000 0.000000
										CHANNELS 3 Xrotation Yrotation Zrotation
										JOINT mixamorig:LeftHandRing3
										{
											OFFSET 5.899796 0.000000 0.000000
											CHANNELS 3 Xrotation Yrotation Zrotation
											JOINT mixamorig:LeftHandRing4
											{
												OFFSET 6.517899 0.000000 0.000000
												CHANNELS 3 Xrotation Yrotation Zrotation
												End Site
												{
													OFFSET -1.637299 6.232208 0.980890
												}
											}
										}
									}
								}
								JOINT mixamorig:LeftHandPinky1
								{
									OFFSET 20.463791 -0.302338 -8.562233
									CHANNELS 3 Xrotation Yrotation Zrotation
									JOINT mixamorig:LeftHandPinky2
									{
										OFFSET 6.908646 0.000000 0.000000
										CHANNELS 3 Xrotation Yrotation Zrotation
										JOINT mixamorig:LeftHandPinky3
										{
											OFFSET 4.622849 0.000000 0.000000
											CHANNELS 3 Xrotation Yrotation Zrotation
											JOINT mixamorig:LeftHandPinky4
											{
												OFFSET 5.216080 0.000000 0.000000
												CHANNELS 3 Xrotation Yrotation Zrotation
												End Site
												{
													OFFSET -0.606308 5.116241 0.814926
												}
											}
										}
									}
								}
							}
						}
					}
				}
				JOINT mixamorig:RightShoulder
				{
					OFFSET -12.001300 18.284088 1.348900
					CHANNELS 3 Xrotation Yrotation Zrotation
					JOINT mixamorig:RightArm
					{
						OFFSET -25.308500 -0.751312 -5.164599
						CHANNELS 3 Xrotation Yrotation Zrotation
						JOINT mixamorig:RightForeArm
						{
							OFFSET -54.684429 0.000000 0.000000
							CHANNELS 3 Xrotation Yrotation Zrotation
							JOINT mixamorig:RightHand
							{
								OFFSET -55.150291 0.000000 0.000000
								CHANNELS 3 Xrotation Yrotation Zrotation
								JOINT mixamorig:RightHandMiddle1
								{
									OFFSET -23.317566 0.000000 0.000000
									CHANNELS 3 Xrotation Yrotation Zrotation
									JOINT mixamorig:RightHandMiddle2
									{
										OFFSET -6.378403 0.000000 0.000000
										CHANNELS 3 Xrotation Yrotation Zrotation
										JOINT mixamorig:RightHandMiddle3
										{
											OFFSET -6.148193 0.000000 0.000000
											CHANNELS 3 Xrotation Yrotation Zrotation
											JOINT mixamorig:RightHandMiddle4
											{
												OFFSET -6.583389 0.000000 0.000000
												CHANNELS 3 Xrotation Yrotation Zrotation
												End Site
												{
													OFFSET 1.171692 6.395905 1.029786
												}
											}
										}
									}
								}
								JOINT mixamorig:RightHandThumb1
								{
									OFFSET -7.190521 -3.860474 5.435846
									CHANNELS 3 Xrotation Yrotation Zrotation
									JOINT mixamorig:RightHandThumb2
									{
										OFFSET -6.567429 -3.791718 3.791708
										CHANNELS 3 Xrotation Yrotation Zrotation
										JOINT mixamorig:RightHandThumb3
										{
											OFFSET -6.062469 -3.500153 3.500166
											CHANNELS 3 Xrotation Yrotation Zrotation
											JOINT mixamorig:RightHandThumb4
											{
												OFFSET -4.792618 -2.767029 2.767022
												CHANNELS 3 Xrotation Yrotation Zrotation
												End Site
												{
													OFFSET -0.100327 6.053253 1.276754
												}
											}
										}
									}
								}
								JOINT mixamorig:RightHandIndex1
								{
									OFFSET -23.048981 -0.310791 4.992554
									CHANNELS 3 Xrotation Yrotation Zrotation
									JOINT mixamorig:RightHandIndex2
									{
										OFFSET -6.227539 0.000000 0.000000
										CHANNELS 3 Xrotation Yrotation Zrotation
										JOINT mixamorig:RightHandIndex3
										{
											OFFSET -6.095047 0.000000 0.000000
											CHANNELS 3 Xrotation Yrotation Zrotation
											JOINT mixamorig:RightHandIndex4
											{
												OFFSET -5.484772 0.000000 0.000000
												CHANNELS 3 Xrotation Yrotation Zrotation
												End Site
												{
													OFFSET 1.420593 5.237305 0.797056
												}
											}
										}
									}
								}
								JOINT mixamorig:RightHandRing1
								{
									OFFSET -22.246323 0.020569 -3.963762
									CHANNELS 3 Xrotation Yrotation Zrotation
									JOINT mixamorig:RightHandRing2
									{
										OFFSET -6.322128 0.000000 0.000000
										CHANNELS 3 Xrotation Yrotation Zrotation
										JOINT mixamorig:RightHandRing3
										{
											OFFSET -5.900024 0.000000 0.000000
											CHANNELS 3 Xrotation Yrotation Zrotation
											JOINT mixamorig:RightHandRing4
											{
												OFFSET -6.518356 0.000000 0.000000
												CHANNELS 3 Xrotation Yrotation Zrotation
												End Site
												{
													OFFSET 1.636398 6.232697 0.982186
												}
											}
										}
									}
								}
								JOINT mixamorig:RightHandPinky1
								{
									OFFSET -20.411011 -0.303314 -8.561701
									CHANNELS 3 Xrotation Yrotation Zrotation
									JOINT mixamorig:RightHandPinky2
									{
										OFFSET -6.907349 0.000000 0.000000
										CHANNELS 3 Xrotation Yrotation Zrotation
										JOINT mixamorig:RightHandPinky3
										{
											OFFSET -4.623840 0.000000 0.000000
											CHANNELS 3 Xrotation Yrotation Zrotation
											JOINT mixamorig:RightHandPinky4
											{
												OFFSET -5.218353 0.000000 0.000000
												CHANNELS 3 Xrotation Yrotation Zrotation
												End Site
												{
													OFFSET 0.602097 5.118835 0.816273
												}
											}
										}
									}
								}
							}
						}
					}
				}
			}
		}
	}
	JOINT mixamorig:LeftUpLeg
	{
		OFFSET 18.168400 -13.561905 -0.039000
		CHANNELS 3 Xrotation Yrotation Zrotation
		JOINT mixamorig:LeftLeg
		{
			OFFSET 0.577358 -80.825211 -3.695000
			CHANNELS 3 Xrotation Yrotation Zrotation
			JOINT mixamorig:LeftFoot
			{
				OFFSET -0.577356 -83.370262 -6.520700
				CHANNELS 3 Xrotation Yrotation Zrotation
				JOINT mixamorig:LeftToeBase
				{
					OFFSET 0.750401 -20.798306 25.135401
					CHANNELS 3 Xrotation Yrotation Zrotation
					JOINT mixamorig:LeftToe_End
					{
						OFFSET -0.000500 0.001200 19.917799
						CHANNELS 3 Xrotation Yrotation Zrotation
						End Site
						{
							OFFSET 0.000000 19.917805 0.000000
						}
					}
				}
			}
		}
	}
	JOINT mixamorig:RightUpLeg
	{
		OFFSET -18.162500 -13.585098 -0.041000
		CHANNELS 3 Xrotation Yrotation Zrotation
		JOINT mixamorig:RightLeg
		{
			OFFSET -0.595024 -80.945297 -3.631900
			CHANNELS 3 Xrotation Yrotation Zrotation
			JOINT mixamorig:RightFoot
			{
				OFFSET 0.595024 -83.218193 -6.561200
				CHANNELS 3 Xrotation Yrotation Zrotation
				JOINT mixamorig:RightToeBase
				{
					OFFSET -0.753601 -20.807106 25.115000
					CHANNELS 3 Xrotation Yrotation Zrotation
					JOINT mixamorig:RightToe_End
					{
						OFFSET 0.000299 0.001700 19.918200
						CHANNELS 3 Xrotation Yrotation Zrotation
						End Site
						{
							OFFSET 0.000000 19.918203 0.000000
						}
					}
				}
			}
		}
	}
}
MOTION
Frames: 4
Frame Time: 0.033333
-5.294395 192.785599 0.145693 80.422206 -66.302046 80.816205 12.508744 2.125535 1.187734 11.401933 1.499433 0.542171 11.413361 1.406001 0.545416 3.884800 -0.697491 0.035976 12.395666 -4.686504 7.265588 0.000001 -0.000000 0.000000 0.000001 -0.000000 0.000000 0.000001 -0.000000 0.000000 -8.316165 -27.301011 -21.227417 -23.662755 -30.763555 -62.288381 0.000001 -34.165774 0.000003 -47.972506 20.250712 47.684959 2.806044 7.909250 -84.007092 8.504352 5.216735 -117.007137 6.559345 5.808186 -96.964787 -0.000003 -0.000000 0.000001 -18.376930 -0.511510 -4.477317 15.742189 2.025328 9.770860 -19.014290 -4.196097 2.297160 0.000003 -0.000001 -0.000001 16.438515 15.692734 -58.590503 7.457597 5.626925 -105.962769 3.794897 5.479041 -69.392878 -0.000002 0.000000 -0.000004 7.157003 8.327411 -85.065956 8.508505 5.214657 -117.052613 6.464600 5.818910 -96.029755 -0.000004 -0.000001 -0.000000 0.255784 7.945455 -87.244383 3.089565 5.160397 -61.796423 8.062057 5.418601 -112.236961 -0.000001 -0.000000 -0.000001 -8.388578 27.180109 25.050619 -26.063455 18.917782 51.633857 -0.000005 32.944693 0.000012 -52.879226 -21.503840 -19.702359 -4.189735 -6.405222 86.391627 4.512984 -4.654936 88.223894 0.215524 -1.401810 17.481447 0.000000 0.000000 0.000002 1.779341 9.266498 -10.423612 -5.645309 -9.781784 3.760271 2.033479 5.579510 -14.139558 0.000001 -0.000000 -0.000001 -4.985697 -4.985565 77.934514 4.257375 -4.640005 85.070238 1.904934 -3.758364 53.744341 -0.000002 -0.000002 -0.000004 -5.048986 -9.841285 105.401703 2.486807 -4.121528 62.197390 0.517152 -2.134810 27.232068 -0.000001 0.000001 0.000000 -25.558515 -20.180689 110.550218 0.523888 -2.147844 27.412225 2.346327 -4.044504 60.224626 -0.000005 0.000000 -0.000002 -50.026126 0.756899 4.290793 25.941386 -0.723904 0.876285 0.225633 0.735308 -5.294188 -1.593174 5.208628 -3.602337 -0.000000 0.000000 0.000000 -46.760933 -2.401697 -11.060445 24.353417 3.518590 -4.762753 -1.436337 0.630961 12.124508 -1.534728 -0.000016 0.000005 0.000000 0.000000 -0.000000 
-5.657372 192.632248 -2.028871 80.162105 -66.643433 80.878975 12.366344 -1.409292 0.559393 11.430842 0.877617 -0.147027 11.462719 0.760727 -0.120002 1.733841 0.073750 2.342748 13.196297 -3.218326 3.968430 -0.000001 0.000000 -0.000000 -0.000001 0.000000 -0.000000 -0.000001 0.000000 -0.000000 -4.431254 -19.184453 -21.359692 -31.482316 -32.787264 -64.870521 -0.000005 -32.063633 -0.000023 -43.946106 23.397173 46.386072 2.806047 7.909246 -84.007092 8.504357 5.216709 -117.007151 6.559352 5.808185 -96.964787 -0.000001 -0.000000 -0.000000 -18.376926 -0.511526 -4.477301 15.742399 2.006322 9.768411 -19.014289 -4.196097 2.297164 0.000000 -0.000000 -0.000001 16.438510 15.692727 -58.590497 7.457589 5.626918 -105.962756 3.794867 5.479035 -69.392898 -0.000001 0.000003 -0.000002 7.157027 8.327412 -85.065949 8.508527 5.214634 -117.052626 6.464623 5.818886 -96.029748 0.000000 -0.000000 -0.000000 0.255783 7.945457 -87.244376 3.089559 5.160407 -61.796430 8.062049 5.418609 -112.236967 -0.000002 0.000000 -0.000000 -12.048735 33.630332 25.298886 -28.208784 15.036568 54.003010 -0.000015 30.189395 0.000009 -52.988147 -20.983917 -19.607223 -4.189746 -6.405200 86.391607 4.512981 -4.654937 88.223894 0.215527 -1.401810 17.481447 0.000000 0.000002 0.000002 1.779311 9.266495 -10.423592 -5.645309 -9.781762 3.760245 2.033505 5.579511 -14.139538 -0.000002 0.000000 0.000000 -4.985701 -4.985551 77.934507 4.257372 -4.640008 85.070238 1.904935 -3.758362 53.744341 -0.000001 -0.000001 0.000002 -5.049006 -9.841264 105.401683 2.486807 -4.121527 62.197390 0.517147 -2.134807 27.232089 -0.000001 0.000001 -0.000001 -25.558534 -20.180673 110.550198 0.523890 -2.147850 27.412218 2.346328 -4.044514 60.224647 0.000002 0.000001 0.000002 -49.466064 0.879167 4.803629 25.724417 -1.602238 0.856726 0.252094 1.368303 -6.001253 -1.410354 4.661475 -3.307334 0.000000 0.000000 0.000000 -47.298152 -2.146157 -10.917485 26.349444 3.372051 -4.266986 -2.532749 0.707415 11.306106 -1.517604 0.000010 0.000000 -0.000000 -0.000000 -0.000000 
-6.011467 192.511856 -4.265023 80.724811 -66.996410 81.757761 12.008864 -4.539825 -0.200794 11.353627 0.287420 -0.843631 11.397205 0.149989 -0.796133 0.954837 0.658189 4.951932 12.976354 -1.765633 0.538935 0.000000 -0.000000 0.000000 0.000000 -0.000000 0.000000 0.000000 -0.000000 0.000000 -1.868440 -13.287806 -22.185800 -37.132132 -32.344624 -65.900971 0.000006 -31.181415 -0.000005 -39.443499 26.645963 44.745023 2.806034 7.909247 -84.007085 8.504362 5.216737 -117.007137 6.559362 5.808182 -96.964787 -0.000004 -0.000000 -0.000001 -18.376924 -0.511506 -4.477325 15.731768 1.951028 9.773347 -19.014285 -4.196095 2.297161 0.000001 -0.000000 0.000001 16.438495 15.692744 -58.590490 7.457603 5.626909 -105.962776 3.794888 5.479043 -69.392878 -0.000000 0.000003 0.000000 7.157024 8.327418 -85.065942 8.508521 5.214630 -117.052626 6.464617 5.818895 -96.029741 0.000000 -0.000000 -0.000000 0.255786 7.945458 -87.244376 3.089558 5.160406 -61.796423 8.062051 5.418607 -112.236947 0.000000 0.000001 -0.000002 -17.023466 40.981330 26.703482 -30.754593 10.378951 55.785310 0.000001 25.478711 0.000008 -52.567065 -20.023202 -18.326212 -4.189764 -6.405178 86.391614 4.512982 -4.654937 88.223894 0.215527 -1.401814 17.481446 0.000002 -0.000001 -0.000002 1.779299 9.266520 -10.423585 -5.645318 -9.781779 3.760253 2.033490 5.579515 -14.139528 0.000000 -0.000000 -0.000000 -4.985700 -4.985536 77.934507 4.257373 -4.640005 85.070238 1.904934 -3.758364 53.744337 -0.000003 -0.000001 -0.000004 -5.048988 -9.841264 105.401676 2.486817 -4.121518 62.197390 0.517161 -2.134810 27.232068 -0.000002 -0.000000 0.000000 -25.558518 -20.180665 110.550218 0.523891 -2.147845 27.412198 2.346330 -4.044521 60.224647 -0.000002 0.000004 0.000002 -48.834586 0.997770 5.492745 25.393668 -2.438646 0.765896 0.308798 2.212382 -6.731522 -1.336289 4.414374 -3.181659 0.000000 -0.000000 0.000000 -47.818240 -1.931975 -10.664155 28.060668 3.500248 -3.672708 -3.449935 0.887349 10.249134 -1.492505 -0.000012 0.000001 0.000000 -0.000000 0.000000 
-6.284233 192.420273 -6.437344 82.551101 -67.304151 83.796941 11.409374 -7.137829 -1.011151 11.198882 -0.271919 -1.507660 11.247466 -0.420050 -1.443530 0.999847 1.078265 7.692521 12.225600 -0.188076 -3.005143 0.000000 -0.000000 0.000000 0.000000 -0.000000 0.000000 0.000000 -0.000000 0.000000 -0.538183 -10.056195 -22.690764 -40.235917 -28.929014 -66.054691 -0.000005 -33.070594 -0.000013 -34.743024 30.680151 43.218463 2.806025 7.909268 -84.007078 8.504374 5.216717 -117.007151 6.559341 5.808170 -96.964801 -0.000000 -0.000000 -0.000001 -18.376940 -0.511501 -4.477315 15.719469 1.862280 9.771487 -19.014287 -4.196094 2.297160 -0.000001 0.000001 0.000000 16.438484 15.692746 -58.590483 7.457577 5.626916 -105.962803 3.794871 5.479059 -69.392885 -0.000000 -0.000002 -0.000003 7.157024 8.327429 -85.065942 8.508529 5.214621 -117.052626 6.464608 5.818885 -96.029748 0.000001 0.000001 -0.000001 0.255779 7.945469 -87.244370 3.089553 5.160386 -61.796423 8.062041 5.418609 -112.236961 0.000000 0.000000 -0.000003 -23.008836 48.073156 29.400204 -31.946816 4.291708 55.568305 0.000022 22.888341 -0.000003 -52.317316 -20.166034 -16.661043 -4.189746 -6.405198 86.391614 4.512981 -4.654932 88.223901 0.215527 -1.401814 17.481446 0.000003 -0.000001 -0.000001 1.779299 9.266495 -10.423590 -5.645315 -9.781786 3.760239 2.033492 5.579487 -14.139552 -0.000003 -0.000001 -0.000001 -4.985702 -4.985552 77.934507 4.257373 -4.640004 85.070238 1.904933 -3.758365 53.744337 -0.000000 -0.000002 -0.000002 -5.048998 -9.841275 105.401683 2.486825 -4.121520 62.197390 0.517151 -2.134801 27.232070 -0.000002 0.000000 0.000001 -25.558518 -20.180673 110.550204 0.523871 -2.147827 27.412192 2.346334 -4.044512 60.224647 -0.000002 0.000001 -0.000001 -48.242336 0.998102 6.372632 25.070788 -3.014526 0.708044 0.345126 3.259755 -7.536205 -1.248970 4.152668 -3.029235 0.000000 -0.000000 0.000000 -48.385566 -1.783322 -10.230339 29.388453 3.791219 -2.920908 -4.084279 1.320040 8.877911 -1.316949 -0.000034 0.000007 -0.000000 0.000000 -0.000000 
